<mxfile host="app.diagrams.net" modified="2022-01-14T18:05:45.163Z" agent="5.0 (Windows NT 10.0; Win64; x64) AppleWebKit/537.36 (KHTML, like Gecko) Chrome/97.0.4692.71 Safari/537.36" etag="peKokN1p20UbVmYMpT4Q" version="16.2.7" type="github">
  <diagram id="TOsZEdzZp91fuENZdWgG" name="Page-1">
    <mxGraphModel dx="902" dy="399" grid="1" gridSize="10" guides="1" tooltips="1" connect="1" arrows="1" fold="1" page="1" pageScale="1" pageWidth="850" pageHeight="1100" math="0" shadow="0">
      <root>
        <mxCell id="0" />
        <mxCell id="1" parent="0" />
        <mxCell id="eIKXC1qmkzRRXaIxY2Rm-1" value="Zoo Melaka Ticket System" style="rounded=1;whiteSpace=wrap;html=1;" vertex="1" parent="1">
          <mxGeometry x="270" y="30" width="130" height="40" as="geometry" />
        </mxCell>
        <mxCell id="eIKXC1qmkzRRXaIxY2Rm-6" value="&lt;font style=&quot;font-size: 11px&quot;&gt;6.0 Generate Report&lt;/font&gt;" style="whiteSpace=wrap;html=1;align=center;verticalAlign=middle;treeFolding=1;treeMoving=1;newEdgeStyle={&quot;edgeStyle&quot;:&quot;elbowEdgeStyle&quot;,&quot;startArrow&quot;:&quot;none&quot;,&quot;endArrow&quot;:&quot;none&quot;};rounded=1;" vertex="1" parent="1">
          <mxGeometry x="780" y="130" width="120" height="40" as="geometry" />
        </mxCell>
        <mxCell id="eIKXC1qmkzRRXaIxY2Rm-7" value="" style="edgeStyle=elbowEdgeStyle;elbow=vertical;startArrow=none;endArrow=block;rounded=0;exitX=0.5;exitY=1;exitDx=0;exitDy=0;endFill=1;" edge="1" target="eIKXC1qmkzRRXaIxY2Rm-6" parent="1" source="eIKXC1qmkzRRXaIxY2Rm-1">
          <mxGeometry relative="1" as="geometry">
            <mxPoint x="375" y="100" as="sourcePoint" />
            <Array as="points">
              <mxPoint x="410" y="110" />
              <mxPoint x="780" y="110" />
              <mxPoint x="445" y="105" />
            </Array>
          </mxGeometry>
        </mxCell>
        <mxCell id="eIKXC1qmkzRRXaIxY2Rm-8" value="&lt;p style=&quot;line-height: 1.4&quot;&gt;&lt;font style=&quot;font-size: 11px&quot;&gt;4.0 Make Payment&lt;/font&gt;&lt;/p&gt;" style="whiteSpace=wrap;html=1;align=center;verticalAlign=middle;treeFolding=1;treeMoving=1;newEdgeStyle={&quot;edgeStyle&quot;:&quot;elbowEdgeStyle&quot;,&quot;startArrow&quot;:&quot;none&quot;,&quot;endArrow&quot;:&quot;none&quot;};rounded=1;" vertex="1" parent="1">
          <mxGeometry x="510" y="130" width="100" height="40" as="geometry" />
        </mxCell>
        <mxCell id="eIKXC1qmkzRRXaIxY2Rm-10" value="&lt;p style=&quot;line-height: 1.4&quot;&gt;&lt;font style=&quot;font-size: 11px&quot;&gt;3.0 Make Booking&lt;/font&gt;&lt;/p&gt;" style="whiteSpace=wrap;html=1;align=center;verticalAlign=middle;treeFolding=1;treeMoving=1;newEdgeStyle={&quot;edgeStyle&quot;:&quot;elbowEdgeStyle&quot;,&quot;startArrow&quot;:&quot;none&quot;,&quot;endArrow&quot;:&quot;none&quot;};rounded=1;" vertex="1" parent="1">
          <mxGeometry x="360" y="130" width="100" height="40" as="geometry" />
        </mxCell>
        <mxCell id="eIKXC1qmkzRRXaIxY2Rm-11" value="" style="elbow=vertical;startArrow=none;endArrow=block;rounded=0;endFill=1;" edge="1" parent="1">
          <mxGeometry relative="1" as="geometry">
            <mxPoint x="409.6199999999997" y="110" as="sourcePoint" />
            <mxPoint x="409.6199999999997" y="130" as="targetPoint" />
          </mxGeometry>
        </mxCell>
        <mxCell id="eIKXC1qmkzRRXaIxY2Rm-12" value="&lt;p style=&quot;line-height: 1.4&quot;&gt;&lt;font style=&quot;font-size: 11px&quot;&gt;2.0 Manage Ticket Type&lt;/font&gt;&lt;/p&gt;" style="whiteSpace=wrap;html=1;align=center;verticalAlign=middle;treeFolding=1;treeMoving=1;newEdgeStyle={&quot;edgeStyle&quot;:&quot;elbowEdgeStyle&quot;,&quot;startArrow&quot;:&quot;none&quot;,&quot;endArrow&quot;:&quot;none&quot;};rounded=1;" vertex="1" parent="1">
          <mxGeometry x="210" y="130" width="130" height="40" as="geometry" />
        </mxCell>
        <mxCell id="eIKXC1qmkzRRXaIxY2Rm-13" value="" style="elbow=vertical;startArrow=none;endArrow=block;rounded=0;endFill=1;" edge="1" parent="1">
          <mxGeometry relative="1" as="geometry">
            <mxPoint x="269.9999999999998" y="109.99999999999994" as="sourcePoint" />
            <mxPoint x="269.9999999999998" y="129.99999999999994" as="targetPoint" />
          </mxGeometry>
        </mxCell>
        <mxCell id="eIKXC1qmkzRRXaIxY2Rm-14" value="&lt;p style=&quot;line-height: 1.4&quot;&gt;&lt;font style=&quot;font-size: 11px&quot;&gt;1.0 Manage Daily Ticket&lt;/font&gt;&lt;/p&gt;" style="whiteSpace=wrap;html=1;align=center;verticalAlign=middle;treeFolding=1;treeMoving=1;newEdgeStyle={&quot;edgeStyle&quot;:&quot;elbowEdgeStyle&quot;,&quot;startArrow&quot;:&quot;none&quot;,&quot;endArrow&quot;:&quot;none&quot;};rounded=1;" vertex="1" parent="1">
          <mxGeometry x="60" y="130" width="130" height="40" as="geometry" />
        </mxCell>
        <mxCell id="eIKXC1qmkzRRXaIxY2Rm-16" value="" style="edgeStyle=elbowEdgeStyle;elbow=vertical;startArrow=none;endArrow=block;rounded=0;fontSize=11;exitX=0.5;exitY=1;exitDx=0;exitDy=0;endFill=1;" edge="1" target="eIKXC1qmkzRRXaIxY2Rm-14" parent="1" source="eIKXC1qmkzRRXaIxY2Rm-1">
          <mxGeometry relative="1" as="geometry">
            <mxPoint x="309.52" y="70.00000000000001" as="sourcePoint" />
            <mxPoint x="-60" y="130" as="targetPoint" />
            <Array as="points">
              <mxPoint x="330" y="110" />
              <mxPoint x="370" y="110" />
              <mxPoint x="310" y="110" />
              <mxPoint x="240" y="110" />
              <mxPoint x="220" y="100" />
            </Array>
          </mxGeometry>
        </mxCell>
        <mxCell id="eIKXC1qmkzRRXaIxY2Rm-18" value="&lt;font style=&quot;font-size: 10px&quot;&gt;4.1 Bank Transfer, Debit Cards&lt;/font&gt;" style="whiteSpace=wrap;html=1;align=center;verticalAlign=middle;treeFolding=1;treeMoving=1;newEdgeStyle={&quot;edgeStyle&quot;:&quot;elbowEdgeStyle&quot;,&quot;startArrow&quot;:&quot;none&quot;,&quot;endArrow&quot;:&quot;none&quot;};rounded=1;fontSize=11;" vertex="1" parent="1">
          <mxGeometry x="540" y="200" width="110" height="40" as="geometry" />
        </mxCell>
        <mxCell id="eIKXC1qmkzRRXaIxY2Rm-20" value="&lt;font style=&quot;font-size: 10px&quot;&gt;6.1 Analysis Report&lt;/font&gt;" style="whiteSpace=wrap;html=1;align=center;verticalAlign=middle;treeFolding=1;treeMoving=1;newEdgeStyle={&quot;edgeStyle&quot;:&quot;elbowEdgeStyle&quot;,&quot;startArrow&quot;:&quot;none&quot;,&quot;endArrow&quot;:&quot;none&quot;};rounded=1;fontSize=11;" vertex="1" parent="1">
          <mxGeometry x="830" y="200" width="110" height="40" as="geometry" />
        </mxCell>
        <mxCell id="eIKXC1qmkzRRXaIxY2Rm-21" value="" style="edgeStyle=elbowEdgeStyle;elbow=vertical;startArrow=none;endArrow=block;rounded=0;fontSize=11;endFill=1;" edge="1" parent="1">
          <mxGeometry relative="1" as="geometry">
            <mxPoint x="810" y="170" as="sourcePoint" />
            <mxPoint x="830" y="220" as="targetPoint" />
            <Array as="points">
              <mxPoint x="790" y="220" />
            </Array>
          </mxGeometry>
        </mxCell>
        <mxCell id="eIKXC1qmkzRRXaIxY2Rm-22" value="&lt;font style=&quot;font-size: 10px&quot;&gt;3.1 Customer make&amp;nbsp; booking and view booking details&lt;/font&gt;" style="whiteSpace=wrap;html=1;align=center;verticalAlign=middle;treeFolding=1;treeMoving=1;newEdgeStyle={&quot;edgeStyle&quot;:&quot;elbowEdgeStyle&quot;,&quot;startArrow&quot;:&quot;none&quot;,&quot;endArrow&quot;:&quot;none&quot;};rounded=1;fontSize=11;" vertex="1" parent="1">
          <mxGeometry x="400" y="200" width="110" height="40" as="geometry" />
        </mxCell>
        <mxCell id="eIKXC1qmkzRRXaIxY2Rm-23" value="" style="elbow=vertical;startArrow=none;endArrow=block;rounded=0;endFill=1;" edge="1" parent="1">
          <mxGeometry relative="1" as="geometry">
            <mxPoint x="550" y="110" as="sourcePoint" />
            <mxPoint x="550" y="130" as="targetPoint" />
            <Array as="points">
              <mxPoint x="550" y="120" />
            </Array>
          </mxGeometry>
        </mxCell>
        <mxCell id="eIKXC1qmkzRRXaIxY2Rm-24" value="" style="edgeStyle=elbowEdgeStyle;elbow=vertical;startArrow=none;endArrow=block;rounded=0;fontSize=11;endFill=1;" edge="1" parent="1">
          <mxGeometry relative="1" as="geometry">
            <mxPoint x="525.0000000000001" y="170" as="sourcePoint" />
            <mxPoint x="540" y="220" as="targetPoint" />
            <Array as="points">
              <mxPoint x="505" y="220" />
            </Array>
          </mxGeometry>
        </mxCell>
        <mxCell id="eIKXC1qmkzRRXaIxY2Rm-25" value="" style="edgeStyle=elbowEdgeStyle;elbow=vertical;startArrow=none;endArrow=block;rounded=0;fontSize=11;endFill=1;" edge="1" parent="1">
          <mxGeometry relative="1" as="geometry">
            <mxPoint x="385" y="170" as="sourcePoint" />
            <mxPoint x="400" y="220" as="targetPoint" />
            <Array as="points">
              <mxPoint x="365" y="220" />
            </Array>
          </mxGeometry>
        </mxCell>
        <mxCell id="eIKXC1qmkzRRXaIxY2Rm-29" value="&lt;p style=&quot;line-height: 1.4&quot;&gt;&lt;font style=&quot;font-size: 11px&quot;&gt;5.0 Print Ticket&lt;/font&gt;&lt;/p&gt;" style="whiteSpace=wrap;html=1;align=center;verticalAlign=middle;treeFolding=1;treeMoving=1;newEdgeStyle={&quot;edgeStyle&quot;:&quot;elbowEdgeStyle&quot;,&quot;startArrow&quot;:&quot;none&quot;,&quot;endArrow&quot;:&quot;none&quot;};rounded=1;" vertex="1" parent="1">
          <mxGeometry x="650" y="130" width="100" height="40" as="geometry" />
        </mxCell>
        <mxCell id="eIKXC1qmkzRRXaIxY2Rm-30" value="&lt;font style=&quot;font-size: 10px&quot;&gt;5.1 Customer print ticket&lt;/font&gt;" style="whiteSpace=wrap;html=1;align=center;verticalAlign=middle;treeFolding=1;treeMoving=1;newEdgeStyle={&quot;edgeStyle&quot;:&quot;elbowEdgeStyle&quot;,&quot;startArrow&quot;:&quot;none&quot;,&quot;endArrow&quot;:&quot;none&quot;};rounded=1;fontSize=11;" vertex="1" parent="1">
          <mxGeometry x="680" y="200" width="110" height="40" as="geometry" />
        </mxCell>
        <mxCell id="eIKXC1qmkzRRXaIxY2Rm-31" value="" style="edgeStyle=elbowEdgeStyle;elbow=vertical;startArrow=none;endArrow=block;rounded=0;fontSize=11;endFill=1;" edge="1" parent="1">
          <mxGeometry relative="1" as="geometry">
            <mxPoint x="665" y="170" as="sourcePoint" />
            <mxPoint x="680" y="220" as="targetPoint" />
            <Array as="points">
              <mxPoint x="645" y="220" />
            </Array>
          </mxGeometry>
        </mxCell>
        <mxCell id="eIKXC1qmkzRRXaIxY2Rm-32" value="" style="elbow=vertical;startArrow=none;endArrow=block;rounded=0;endFill=1;" edge="1" parent="1">
          <mxGeometry relative="1" as="geometry">
            <mxPoint x="690" y="110.00000000000006" as="sourcePoint" />
            <mxPoint x="690" y="130.00000000000006" as="targetPoint" />
            <Array as="points">
              <mxPoint x="690" y="120" />
            </Array>
          </mxGeometry>
        </mxCell>
        <mxCell id="eIKXC1qmkzRRXaIxY2Rm-33" value="&lt;font style=&quot;font-size: 10px&quot;&gt;2.1 create Ticket Type&lt;/font&gt;" style="whiteSpace=wrap;html=1;align=center;verticalAlign=middle;treeFolding=1;treeMoving=1;newEdgeStyle={&quot;edgeStyle&quot;:&quot;elbowEdgeStyle&quot;,&quot;startArrow&quot;:&quot;none&quot;,&quot;endArrow&quot;:&quot;none&quot;};rounded=1;fontSize=11;" vertex="1" parent="1">
          <mxGeometry x="260" y="200" width="110" height="40" as="geometry" />
        </mxCell>
        <mxCell id="eIKXC1qmkzRRXaIxY2Rm-35" value="&lt;font style=&quot;font-size: 10px&quot;&gt;2.2 Update or delete Ticket Type information&lt;/font&gt;" style="whiteSpace=wrap;html=1;align=center;verticalAlign=middle;treeFolding=1;treeMoving=1;newEdgeStyle={&quot;edgeStyle&quot;:&quot;elbowEdgeStyle&quot;,&quot;startArrow&quot;:&quot;none&quot;,&quot;endArrow&quot;:&quot;none&quot;};rounded=1;fontSize=11;" vertex="1" parent="1">
          <mxGeometry x="260" y="260" width="110" height="40" as="geometry" />
        </mxCell>
        <mxCell id="eIKXC1qmkzRRXaIxY2Rm-36" value="" style="edgeStyle=elbowEdgeStyle;elbow=vertical;startArrow=none;endArrow=block;rounded=0;fontSize=11;endFill=1;" edge="1" parent="1">
          <mxGeometry relative="1" as="geometry">
            <mxPoint x="245" y="220" as="sourcePoint" />
            <mxPoint x="260" y="280" as="targetPoint" />
            <Array as="points">
              <mxPoint x="225" y="280" />
            </Array>
          </mxGeometry>
        </mxCell>
        <mxCell id="eIKXC1qmkzRRXaIxY2Rm-40" value="" style="edgeStyle=elbowEdgeStyle;elbow=vertical;startArrow=none;endArrow=block;rounded=0;fontSize=11;endFill=1;" edge="1" parent="1">
          <mxGeometry relative="1" as="geometry">
            <mxPoint x="245" y="170" as="sourcePoint" />
            <mxPoint x="260" y="220" as="targetPoint" />
            <Array as="points">
              <mxPoint x="225" y="220" />
            </Array>
          </mxGeometry>
        </mxCell>
        <mxCell id="eIKXC1qmkzRRXaIxY2Rm-43" value="" style="edgeStyle=elbowEdgeStyle;elbow=vertical;startArrow=none;endArrow=block;rounded=0;fontSize=11;endFill=1;" edge="1" parent="1">
          <mxGeometry relative="1" as="geometry">
            <mxPoint x="85" y="170" as="sourcePoint" />
            <mxPoint x="100" y="220" as="targetPoint" />
            <Array as="points">
              <mxPoint x="65" y="220" />
            </Array>
          </mxGeometry>
        </mxCell>
        <mxCell id="eIKXC1qmkzRRXaIxY2Rm-44" value="&lt;font style=&quot;font-size: 10px&quot;&gt;1.1 generate Ticket&amp;nbsp; daily&lt;/font&gt;" style="whiteSpace=wrap;html=1;align=center;verticalAlign=middle;treeFolding=1;treeMoving=1;newEdgeStyle={&quot;edgeStyle&quot;:&quot;elbowEdgeStyle&quot;,&quot;startArrow&quot;:&quot;none&quot;,&quot;endArrow&quot;:&quot;none&quot;};rounded=1;fontSize=11;" vertex="1" parent="1">
          <mxGeometry x="100" y="200" width="110" height="40" as="geometry" />
        </mxCell>
        <mxCell id="eIKXC1qmkzRRXaIxY2Rm-45" value="&lt;font style=&quot;font-size: 10px&quot;&gt;1.2 Update or delete Ticket Information&lt;/font&gt;" style="whiteSpace=wrap;html=1;align=center;verticalAlign=middle;treeFolding=1;treeMoving=1;newEdgeStyle={&quot;edgeStyle&quot;:&quot;elbowEdgeStyle&quot;,&quot;startArrow&quot;:&quot;none&quot;,&quot;endArrow&quot;:&quot;none&quot;};rounded=1;fontSize=11;" vertex="1" parent="1">
          <mxGeometry x="100" y="260" width="110" height="40" as="geometry" />
        </mxCell>
        <mxCell id="eIKXC1qmkzRRXaIxY2Rm-46" value="" style="edgeStyle=elbowEdgeStyle;elbow=vertical;startArrow=none;endArrow=block;rounded=0;fontSize=11;endFill=1;" edge="1" parent="1">
          <mxGeometry relative="1" as="geometry">
            <mxPoint x="85" y="220" as="sourcePoint" />
            <mxPoint x="100" y="280" as="targetPoint" />
            <Array as="points">
              <mxPoint x="65" y="280" />
            </Array>
          </mxGeometry>
        </mxCell>
      </root>
    </mxGraphModel>
  </diagram>
</mxfile>
